<svg xmlns="http://www.w3.org/2000/svg" xmlns:xlink="http://www.w3.org/1999/xlink" width="350" zoomAndPan="magnify" viewBox="0 0 262.5 74.999997" height="100" preserveAspectRatio="xMidYMid meet" version="1.0"><defs><g/><clipPath id="095c4085d2"><path d="M 52.253906 7.257812 L 110 7.257812 L 110 22.257812 L 52.253906 22.257812 Z M 52.253906 7.257812 " clip-rule="nonzero"/></clipPath><clipPath id="3f16bbfcc5"><path d="M 102 7.257812 L 160 7.257812 L 160 22.257812 L 102 22.257812 Z M 102 7.257812 " clip-rule="nonzero"/></clipPath><clipPath id="b274614b6c"><path d="M 150.328125 7.257812 L 208.078125 7.257812 L 208.078125 22.257812 L 150.328125 22.257812 Z M 150.328125 7.257812 " clip-rule="nonzero"/></clipPath></defs><g clip-path="url(#095c4085d2)"><path fill="#d9306e" d="M 100.214844 7.257812 L 84.609375 22.257812 L 94.386719 22.257812 L 109.992188 7.257812 Z M 84.042969 7.257812 L 68.433594 22.257812 L 78.210938 22.257812 L 93.820312 7.257812 Z M 67.867188 7.257812 L 52.261719 22.257812 L 62.039062 22.257812 L 77.644531 7.257812 Z M 67.867188 7.257812 " fill-opacity="1" fill-rule="nonzero"/></g><g clip-path="url(#3f16bbfcc5)"><path fill="#e1ebed" d="M 149.945312 7.257812 L 134.230469 22.257812 L 144.28125 22.257812 L 159.992188 7.257812 Z M 144.179688 21.992188 L 134.871094 21.992188 L 150.042969 7.527344 L 159.332031 7.527344 Z M 133.929688 7.257812 L 118.21875 22.257812 L 128.265625 22.257812 L 143.980469 7.257812 Z M 128.167969 21.992188 L 118.878906 21.992188 L 134.050781 7.527344 L 143.359375 7.527344 Z M 117.9375 7.257812 L 102.226562 22.257812 L 112.273438 22.257812 L 127.988281 7.257812 Z M 112.171875 21.992188 L 102.886719 21.992188 L 118.039062 7.527344 L 127.347656 7.527344 Z M 112.171875 21.992188 " fill-opacity="1" fill-rule="nonzero"/></g><g fill="#d9306e" fill-opacity="1"><g transform="translate(18.612647, 39.534002)"><g><path d="M 1.109375 -2.0625 L 1.109375 -9.0625 L 3.34375 -11.140625 L 10.8125 -11.140625 L 10.8125 -9.21875 L 4.375 -9.21875 L 3.34375 -8.265625 L 3.34375 -2.859375 L 4.375 -1.90625 L 8.828125 -1.90625 L 9.859375 -2.859375 L 9.859375 -4.609375 L 6.84375 -4.609375 L 6.84375 -6.515625 L 12.09375 -6.515625 L 12.09375 -2.0625 L 9.859375 0 L 3.34375 0 Z M 1.109375 -2.0625 "/></g></g></g><g fill="#d9306e" fill-opacity="1"><g transform="translate(31.654179, 39.534002)"><g><path d="M 1.359375 -11.140625 L 10.890625 -11.140625 L 10.890625 -9.21875 L 3.578125 -9.21875 L 3.578125 -6.515625 L 9.140625 -6.515625 L 9.140625 -4.609375 L 3.578125 -4.609375 L 3.578125 -1.90625 L 11.0625 -1.90625 L 11.0625 0 L 1.359375 0 Z M 1.359375 -11.140625 "/></g></g></g><g fill="#d9306e" fill-opacity="1"><g transform="translate(43.264329, 39.534002)"><g><path d="M 1.359375 -11.140625 L 3.5 -11.140625 L 9.625 -3.5 L 9.625 -11.140625 L 11.84375 -11.140625 L 11.84375 0 L 9.703125 0 L 3.578125 -7.640625 L 3.578125 0 L 1.359375 0 Z M 1.359375 -11.140625 "/></g></g></g><g fill="#d9306e" fill-opacity="1"><g transform="translate(56.464902, 39.534002)"><g><path d="M 1.359375 -11.140625 L 10.890625 -11.140625 L 10.890625 -9.21875 L 3.578125 -9.21875 L 3.578125 -6.515625 L 9.140625 -6.515625 L 9.140625 -4.609375 L 3.578125 -4.609375 L 3.578125 -1.90625 L 11.0625 -1.90625 L 11.0625 0 L 1.359375 0 Z M 1.359375 -11.140625 "/></g></g></g><g fill="#d9306e" fill-opacity="1"><g transform="translate(68.075051, 39.534002)"><g><path d="M 1.359375 -11.140625 L 9.390625 -11.140625 L 11.453125 -9.21875 L 11.453125 -5.5625 L 9.546875 -3.734375 L 12.25 0 L 9.625 0 L 7 -3.65625 L 3.578125 -3.65625 L 3.578125 0 L 1.359375 0 Z M 8.34375 -5.5625 L 9.21875 -6.359375 L 9.21875 -8.4375 L 8.34375 -9.21875 L 3.578125 -9.21875 L 3.578125 -5.5625 Z M 8.34375 -5.5625 "/></g></g></g><g fill="#d9306e" fill-opacity="1"><g transform="translate(80.718973, 39.534002)"><g><path d="M 4.9375 -11.140625 L 7.796875 -11.140625 L 12.71875 0 L 10.265625 0 L 8.984375 -2.9375 L 3.734375 -2.9375 L 2.46875 0 L 0 0 Z M 8.109375 -4.84375 L 6.359375 -8.90625 L 4.609375 -4.84375 Z M 8.109375 -4.84375 "/></g></g></g><g fill="#d9306e" fill-opacity="1"><g transform="translate(93.442424, 39.534002)"><g><path d="M 4.453125 -9.21875 L 0.3125 -9.21875 L 0.3125 -11.140625 L 10.8125 -11.140625 L 10.8125 -9.21875 L 6.6875 -9.21875 L 6.6875 0 L 4.453125 0 Z M 4.453125 -9.21875 "/></g></g></g><g fill="#d9306e" fill-opacity="1"><g transform="translate(104.575443, 39.534002)"><g><path d="M 1.109375 -1.90625 L 1.109375 -9.21875 L 3.34375 -11.296875 L 9.78125 -11.296875 L 12.015625 -9.21875 L 12.015625 -1.90625 L 9.78125 0.15625 L 3.34375 0.15625 Z M 8.75 -1.75 L 9.78125 -2.703125 L 9.78125 -8.4375 L 8.75 -9.390625 L 4.375 -9.390625 L 3.34375 -8.4375 L 3.34375 -2.703125 L 4.375 -1.75 Z M 8.75 -1.75 "/></g></g></g><g fill="#d9306e" fill-opacity="1"><g transform="translate(117.696496, 39.534002)"><g><path d="M 1.359375 -11.140625 L 9.390625 -11.140625 L 11.453125 -9.21875 L 11.453125 -5.5625 L 9.546875 -3.734375 L 12.25 0 L 9.625 0 L 7 -3.65625 L 3.578125 -3.65625 L 3.578125 0 L 1.359375 0 Z M 8.34375 -5.5625 L 9.21875 -6.359375 L 9.21875 -8.4375 L 8.34375 -9.21875 L 3.578125 -9.21875 L 3.578125 -5.5625 Z M 8.34375 -5.5625 "/></g></g></g><g fill="#d9306e" fill-opacity="1"><g transform="translate(130.340418, 39.534002)"><g/></g></g><g fill="#d9306e" fill-opacity="1"><g transform="translate(135.429797, 39.534002)"><g><path d="M 1.359375 -11.140625 L 9.546875 -11.140625 L 11.609375 -9.21875 L 11.609375 -5.25 L 9.546875 -3.34375 L 3.578125 -3.34375 L 3.578125 0 L 1.359375 0 Z M 8.515625 -5.25 L 9.390625 -6.046875 L 9.390625 -8.4375 L 8.515625 -9.21875 L 3.578125 -9.21875 L 3.578125 -5.25 Z M 8.515625 -5.25 "/></g></g></g><g fill="#d9306e" fill-opacity="1"><g transform="translate(147.755638, 39.534002)"><g><path d="M 4.9375 -11.140625 L 7.796875 -11.140625 L 12.71875 0 L 10.265625 0 L 8.984375 -2.9375 L 3.734375 -2.9375 L 2.46875 0 L 0 0 Z M 8.109375 -4.84375 L 6.359375 -8.90625 L 4.609375 -4.84375 Z M 8.109375 -4.84375 "/></g></g></g><g fill="#d9306e" fill-opacity="1"><g transform="translate(160.479089, 39.534002)"><g><path d="M 0.953125 -1.90625 L 7.953125 -1.90625 L 8.828125 -2.703125 L 8.828125 -3.890625 L 7.953125 -4.6875 L 2.859375 -4.6875 L 0.796875 -6.59375 L 0.796875 -9.21875 L 2.859375 -11.140625 L 10.421875 -11.140625 L 10.421875 -9.21875 L 3.890625 -9.21875 L 3.015625 -8.4375 L 3.015625 -7.390625 L 3.890625 -6.59375 L 8.984375 -6.59375 L 11.0625 -4.6875 L 11.0625 -1.90625 L 8.984375 0 L 0.953125 0 Z M 0.953125 -1.90625 "/></g></g></g><g fill="#d9306e" fill-opacity="1"><g transform="translate(172.24827, 39.534002)"><g><path d="M 0.953125 -1.90625 L 7.953125 -1.90625 L 8.828125 -2.703125 L 8.828125 -3.890625 L 7.953125 -4.6875 L 2.859375 -4.6875 L 0.796875 -6.59375 L 0.796875 -9.21875 L 2.859375 -11.140625 L 10.421875 -11.140625 L 10.421875 -9.21875 L 3.890625 -9.21875 L 3.015625 -8.4375 L 3.015625 -7.390625 L 3.890625 -6.59375 L 8.984375 -6.59375 L 11.0625 -4.6875 L 11.0625 -1.90625 L 8.984375 0 L 0.953125 0 Z M 0.953125 -1.90625 "/></g></g></g><g fill="#d9306e" fill-opacity="1"><g transform="translate(184.017452, 39.534002)"><g><path d="M 0.15625 -11.140625 L 2.546875 -11.140625 L 5.015625 -2.390625 L 7.5625 -11.140625 L 10.265625 -11.140625 L 12.796875 -2.390625 L 15.265625 -11.140625 L 17.65625 -11.140625 L 14.3125 0 L 11.375 0 L 8.90625 -8.109375 L 6.4375 0 L 3.5 0 Z M 0.15625 -11.140625 "/></g></g></g><g fill="#d9306e" fill-opacity="1"><g transform="translate(201.830281, 39.534002)"><g><path d="M 1.109375 -1.90625 L 1.109375 -9.21875 L 3.34375 -11.296875 L 9.78125 -11.296875 L 12.015625 -9.21875 L 12.015625 -1.90625 L 9.78125 0.15625 L 3.34375 0.15625 Z M 8.75 -1.75 L 9.78125 -2.703125 L 9.78125 -8.4375 L 8.75 -9.390625 L 4.375 -9.390625 L 3.34375 -8.4375 L 3.34375 -2.703125 L 4.375 -1.75 Z M 8.75 -1.75 "/></g></g></g><g fill="#d9306e" fill-opacity="1"><g transform="translate(214.951334, 39.534002)"><g><path d="M 1.359375 -11.140625 L 9.390625 -11.140625 L 11.453125 -9.21875 L 11.453125 -5.5625 L 9.546875 -3.734375 L 12.25 0 L 9.625 0 L 7 -3.65625 L 3.578125 -3.65625 L 3.578125 0 L 1.359375 0 Z M 8.34375 -5.5625 L 9.21875 -6.359375 L 9.21875 -8.4375 L 8.34375 -9.21875 L 3.578125 -9.21875 L 3.578125 -5.5625 Z M 8.34375 -5.5625 "/></g></g></g><g fill="#d9306e" fill-opacity="1"><g transform="translate(227.595248, 39.534002)"><g><path d="M 1.359375 -11.140625 L 9.625 -11.140625 L 11.84375 -9.0625 L 11.84375 -2.0625 L 9.625 0 L 1.359375 0 Z M 8.59375 -1.90625 L 9.625 -2.859375 L 9.625 -8.265625 L 8.59375 -9.21875 L 3.578125 -9.21875 L 3.578125 -1.90625 Z M 8.59375 -1.90625 "/></g></g></g><g fill="#ffffff" fill-opacity="1"><g transform="translate(103.913908, 55.924286)"><g><path d="M 0.875 -7.21875 L 1.8125 -7.21875 L 1.8125 -5.15625 L 4.59375 -5.15625 L 5.875 -3.96875 L 5.875 -1.1875 L 4.59375 0 L 0.875 0 Z M 4.171875 -0.828125 L 4.953125 -1.546875 L 4.953125 -3.609375 L 4.171875 -4.328125 L 1.8125 -4.328125 L 1.8125 -0.828125 Z M 4.171875 -0.828125 "/></g></g></g><g fill="#ffffff" fill-opacity="1"><g transform="translate(110.462377, 55.924286)"><g><path d="M 1.34375 1.234375 L 4.078125 1.234375 L 4.84375 0.515625 L 4.84375 0 L 2.015625 0 L 0.828125 -1.078125 L 0.828125 -5.15625 L 1.75 -5.15625 L 1.75 -1.4375 L 2.421875 -0.828125 L 4.84375 -0.828125 L 4.84375 -5.15625 L 5.78125 -5.15625 L 5.78125 0.875 L 4.484375 2.0625 L 1.34375 2.0625 Z M 1.34375 1.234375 "/></g></g></g><g fill="#ffffff" fill-opacity="1"><g transform="translate(117.062413, 55.924286)"><g/></g></g><g fill="#ffffff" fill-opacity="1"><g transform="translate(120.362431, 55.924286)"><g><path d="M 0.828125 -1.234375 L 0.828125 -5.984375 L 2.265625 -7.328125 L 6.140625 -7.328125 L 7.578125 -5.984375 L 7.578125 -1.234375 L 6.140625 0.109375 L 2.265625 0.109375 Z M 5.71875 -0.71875 L 6.59375 -1.546875 L 6.59375 -5.671875 L 5.71875 -6.5 L 2.6875 -6.5 L 1.8125 -5.671875 L 1.8125 -1.546875 L 2.6875 -0.71875 Z M 5.71875 -0.71875 "/></g></g></g><g fill="#ffffff" fill-opacity="1"><g transform="translate(128.767165, 55.924286)"><g><path d="M 0.671875 -1.1875 L 0.671875 -3.96875 L 1.953125 -5.15625 L 5.15625 -5.15625 L 5.15625 -4.328125 L 2.375 -4.328125 L 1.59375 -3.609375 L 1.59375 -1.546875 L 2.375 -0.828125 L 5.15625 -0.828125 L 5.15625 0 L 1.953125 0 Z M 0.671875 -1.1875 "/></g></g></g><g fill="#ffffff" fill-opacity="1"><g transform="translate(134.335951, 55.924286)"><g><path d="M 1.234375 -1.1875 L 1.234375 -4.328125 L 0.203125 -4.328125 L 0.203125 -5.15625 L 1.234375 -5.15625 L 1.234375 -6.5 L 2.171875 -6.5 L 2.171875 -5.15625 L 3.71875 -5.15625 L 3.71875 -4.328125 L 2.171875 -4.328125 L 2.171875 -1.546875 L 2.9375 -0.828125 L 4.171875 -0.828125 L 4.171875 0 L 2.53125 0 Z M 1.234375 -1.1875 "/></g></g></g><g fill="#ffffff" fill-opacity="1"><g transform="translate(138.718786, 55.924286)"><g><path d="M 0.46875 -0.984375 L 0.46875 -2.109375 L 1.546875 -3.09375 L 4.4375 -3.09375 L 4.4375 -3.765625 L 3.8125 -4.328125 L 1.140625 -4.328125 L 1.140625 -5.15625 L 4.234375 -5.15625 L 5.359375 -4.125 L 5.359375 0 L 4.75 0 L 4.640625 -0.625 L 3.96875 0 L 1.546875 0 Z M 3.765625 -0.828125 L 4.4375 -1.4375 L 4.4375 -2.265625 L 1.953125 -2.265625 L 1.390625 -1.75 L 1.390625 -1.34375 L 1.953125 -0.828125 Z M 3.765625 -0.828125 "/></g></g></g><g fill="#ffffff" fill-opacity="1"><g transform="translate(144.854752, 55.924286)"><g><path d="M 0.828125 -5.15625 L 1.4375 -5.15625 L 1.546875 -4.53125 L 2.21875 -5.15625 L 4.59375 -5.15625 L 5.78125 -4.078125 L 5.78125 0 L 4.84375 0 L 4.84375 -3.71875 L 4.171875 -4.328125 L 2.421875 -4.328125 L 1.75 -3.71875 L 1.75 0 L 0.828125 0 Z M 0.828125 -5.15625 "/></g></g></g><g fill="#ffffff" fill-opacity="1"><g transform="translate(151.403221, 55.924286)"><g><path d="M 0.671875 -1.1875 L 0.671875 -4.078125 L 1.953125 -5.265625 L 4.234375 -5.265625 L 5.515625 -4.078125 L 5.515625 -2.109375 L 1.59375 -2.109375 L 1.59375 -1.546875 L 2.375 -0.828125 L 5.109375 -0.828125 L 5.109375 0 L 1.953125 0 Z M 4.59375 -2.9375 L 4.59375 -3.71875 L 3.8125 -4.4375 L 2.375 -4.4375 L 1.59375 -3.71875 L 1.59375 -2.9375 Z M 4.59375 -2.9375 "/></g></g></g><g clip-path="url(#b274614b6c)"><path fill="#06adbf" d="M 198.292969 7.257812 L 182.683594 22.257812 L 192.460938 22.257812 L 208.070312 7.257812 Z M 182.117188 7.257812 L 166.511719 22.257812 L 176.289062 22.257812 L 191.894531 7.257812 Z M 165.945312 7.257812 L 150.339844 22.257812 L 160.113281 22.257812 L 175.722656 7.257812 Z M 165.945312 7.257812 " fill-opacity="1" fill-rule="nonzero"/></g></svg>