<svg xmlns="http://www.w3.org/2000/svg" xmlns:xlink="http://www.w3.org/1999/xlink" width="200" zoomAndPan="magnify" viewBox="0 0 150 149.999998" height="200" preserveAspectRatio="xMidYMid meet" version="1.0"><defs><clipPath id="9a7247f2d2"><path d="M 10 8.035156 L 143.65625 8.035156 L 143.65625 142 L 10 142 Z M 10 8.035156 " clip-rule="nonzero"/></clipPath></defs><path fill="#71c598" d="M 82.910156 9.878906 C 66.414062 10.277344 59.3125 12.574219 48.078125 16.332031 C 43.652344 17.8125 41.007812 20.054688 37.132812 22.660156 C 32.53125 25.757812 26.9375 32.003906 23.804688 36.582031 C 10.5 56.050781 7.863281 82.65625 18.117188 103.898438 C 24.132812 116.355469 34.210938 126.960938 46.75 132.765625 C 59.46875 138.648438 70.992188 141.46875 84.914062 139.917969 C 98.320312 138.425781 100.742188 137.121094 110.792969 130.964844 C 113.566406 129.265625 118.730469 125.238281 120.847656 122.765625 C 123.414062 119.773438 130.09375 112.84375 132.203125 109.511719 C 139.652344 97.761719 141.851562 89.035156 141.710938 70.992188 C 141.667969 65.292969 140.03125 58.53125 138.207031 53.132812 C 134.484375 42.132812 130.875 33.980469 121.550781 27.078125 C 111.277344 19.472656 105.039062 12.417969 82.832031 9.851562 " fill-opacity="1" fill-rule="nonzero"/><g clip-path="url(#9a7247f2d2)"><path fill="#010101" d="M 77.46875 141.949219 C 67.261719 141.949219 57.488281 139.5 46.078125 134.21875 C 33.539062 128.414062 23.097656 117.898438 16.675781 104.597656 C 6.292969 83.085938 8.574219 56.039062 22.488281 35.679688 C 25.683594 31.003906 31.4375 24.574219 36.246094 21.332031 C 36.996094 20.824219 37.703125 20.332031 38.382812 19.855469 C 41.289062 17.824219 43.796875 16.074219 47.574219 14.8125 C 58.519531 11.152344 65.78125 8.726562 82.484375 8.285156 C 82.65625 8.246094 82.839844 8.242188 83.019531 8.257812 C 102.726562 10.535156 110.089844 16.230469 118.617188 22.828125 C 119.875 23.800781 121.152344 24.789062 122.503906 25.789062 C 132.554688 33.230469 136.246094 42.34375 139.726562 52.621094 C 141.042969 56.523438 143.261719 64.09375 143.316406 70.980469 C 143.453125 89.152344 141.175781 98.355469 133.558594 110.375 C 131.988281 112.851562 128.179688 117.039062 125.117188 120.402344 C 123.894531 121.75 122.800781 122.949219 122.058594 123.816406 C 119.714844 126.550781 114.316406 130.691406 111.628906 132.335938 C 101.375 138.613281 98.730469 140 85.089844 141.511719 C 82.503906 141.800781 79.972656 141.949219 77.46875 141.949219 Z M 82.96875 11.480469 C 82.964844 11.480469 82.957031 11.480469 82.949219 11.480469 C 66.449219 11.882812 59.34375 14.257812 48.585938 17.855469 C 45.246094 18.96875 43.023438 20.519531 40.210938 22.484375 C 39.515625 22.96875 38.792969 23.472656 38.027344 23.992188 C 33.554688 27.003906 28.148438 33.0625 25.125 37.488281 C 11.847656 56.914062 9.664062 82.703125 19.558594 103.199219 C 25.65625 115.832031 35.550781 125.816406 47.417969 131.308594 C 61.0625 137.628906 72.21875 139.71875 84.734375 138.324219 C 97.730469 136.882812 100.015625 135.691406 109.960938 129.597656 C 112.75 127.890625 117.6875 123.996094 119.632812 121.722656 C 120.390625 120.839844 121.503906 119.617188 122.757812 118.242188 C 125.574219 115.140625 129.4375 110.898438 130.855469 108.65625 C 138.171875 97.105469 140.25 88.664062 140.117188 71.003906 C 140.078125 66.296875 138.832031 59.976562 136.695312 53.644531 C 133.277344 43.546875 129.921875 35.269531 120.605469 28.367188 C 119.238281 27.355469 117.9375 26.347656 116.664062 25.363281 C 108.558594 19.097656 101.550781 13.683594 82.96875 11.480469 Z M 82.96875 11.480469 " fill-opacity="1" fill-rule="nonzero"/></g><path fill="#d6e5e5" d="M 73.367188 87.625 C 64.675781 87.183594 65.871094 87.425781 56.828125 88.242188 C 53.742188 88.523438 50.535156 89.054688 47.460938 89.4375 C 45.390625 89.691406 43.21875 89.992188 41.554688 91.253906 C 39.890625 92.511719 39.023438 95.082031 40.285156 96.746094 C 41.449219 98.28125 43.710938 98.503906 45.617188 98.246094 C 58.164062 96.558594 63.242188 96.0625 74.417969 96.207031 C 79.300781 96.269531 88.835938 98.671875 93.25 100.757812 C 96.238281 102.167969 101.988281 104.964844 103.683594 105.546875 C 105.914062 106.308594 107.527344 104.265625 108.046875 102.542969 C 108.519531 100.96875 107.011719 99.375 106 98.53125 C 98.265625 92.046875 83.453125 88.464844 73.402344 87.613281 " fill-opacity="1" fill-rule="nonzero"/><path fill="#d6e5e5" d="M 78.300781 77.011719 C 73.710938 75.707031 70.09375 76.089844 66.132812 76.179688 C 64.035156 76.226562 57.832031 76.75 55.773438 77.160156 C 50.777344 78.160156 49.382812 78.507812 44.386719 79.507812 C 43.234375 79.738281 42.058594 79.96875 40.890625 79.824219 C 38.988281 79.582031 37.261719 78.257812 36.527344 76.480469 C 36.28125 75.878906 36.140625 75.195312 36.335938 74.574219 C 36.59375 73.761719 36.570312 71.847656 39.160156 70.878906 C 49.355469 67.082031 54.492188 67.277344 63.207031 66.636719 C 74.398438 65.8125 80.667969 67.894531 89.238281 69.601562 C 94.839844 70.71875 100.707031 73.132812 106.054688 75.140625 C 110.148438 76.679688 113.761719 77.964844 114.59375 81.691406 C 114.859375 82.871094 114.519531 85.101562 113.714844 86.003906 C 113.15625 86.632812 112.644531 87.351562 111.816406 87.488281 C 109.160156 87.933594 106.6875 86.246094 104.183594 85.253906 C 102.472656 84.578125 99.511719 83.496094 97.792969 82.835938 C 92.277344 80.71875 87.800781 79.054688 78.160156 77.003906 " fill-opacity="1" fill-rule="nonzero"/><path fill="#d6e5e5" d="M 78.820312 56.546875 C 66.859375 54.714844 54.421875 56.042969 42.671875 58.949219 C 41.222656 59.308594 39.761719 59.703125 38.269531 59.664062 C 36.777344 59.625 35.222656 59.078125 34.328125 57.882812 C 33.558594 56.859375 32.96875 55.984375 32.816406 54.710938 C 32.699219 53.75 33.007812 52.261719 33.4375 51.394531 C 33.789062 50.699219 34.4375 50.210938 35.085938 49.78125 C 38.460938 47.546875 42.441406 46.238281 46.480469 46.03125 C 48.878906 45.910156 51.53125 44.964844 53.917969 44.746094 C 56.085938 44.542969 62.476562 43.855469 64.65625 43.941406 C 76.441406 44.421875 75.558594 43.460938 87.355469 44.9375 C 89.3125 45.179688 92.875 46.136719 94.808594 46.515625 C 98.207031 47.175781 99.332031 47.390625 102.589844 48.558594 C 105.765625 49.695312 107.535156 49.960938 109.242188 50.753906 C 111.175781 51.65625 113.964844 52.675781 115.835938 53.699219 C 120.214844 56.089844 120.859375 55.925781 123.511719 58.769531 C 125.828125 61.25 124.308594 65.152344 123.058594 66.347656 C 122.34375 67.027344 121.699219 67.304688 120.761719 67.601562 C 117.570312 68.621094 114.140625 67.351562 111.070312 66.015625 C 103.878906 62.882812 96.742188 59.234375 88.976562 58.175781 C 85.875 57.753906 83.445312 57.109375 78.898438 56.546875 " fill-opacity="1" fill-rule="nonzero"/><path fill="#010101" d="M 104.636719 107.308594 C 104.152344 107.308594 103.65625 107.226562 103.167969 107.054688 C 101.710938 106.5625 97.746094 104.671875 94.558594 103.152344 L 92.566406 102.203125 C 88.160156 100.121094 78.820312 97.863281 74.398438 97.804688 C 63.59375 97.667969 58.597656 98.113281 45.828125 99.832031 C 42.828125 100.246094 40.339844 99.464844 39.011719 97.710938 C 38.265625 96.726562 37.957031 95.460938 38.136719 94.140625 C 38.355469 92.53125 39.273438 90.972656 40.589844 89.972656 C 42.644531 88.417969 45.207031 88.097656 47.261719 87.847656 C 48.355469 87.710938 49.464844 87.554688 50.582031 87.398438 C 52.621094 87.113281 54.675781 86.828125 56.683594 86.648438 C 58.625 86.46875 60.089844 86.324219 61.28125 86.203125 C 65.660156 85.757812 66.488281 85.671875 73.226562 86.011719 C 73.328125 86.003906 73.433594 86.003906 73.539062 86.007812 C 84.628906 86.949219 99.285156 90.800781 107.035156 97.296875 C 109.230469 99.132812 110.136719 101.160156 109.582031 103 C 109.070312 104.699219 107.957031 106.128906 106.605469 106.824219 C 105.976562 107.144531 105.3125 107.308594 104.636719 107.308594 Z M 70.941406 94.574219 C 72.042969 94.574219 73.207031 94.582031 74.4375 94.601562 C 79.714844 94.667969 89.5625 97.242188 93.925781 99.304688 L 95.929688 100.257812 C 98.878906 101.660156 102.917969 103.589844 104.199219 104.023438 C 104.542969 104.140625 104.835938 104.128906 105.140625 103.972656 C 105.710938 103.679688 106.265625 102.917969 106.515625 102.074219 C 106.660156 101.589844 106.03125 100.636719 104.980469 99.753906 C 97.859375 93.789062 83.722656 90.125 73.492188 89.222656 C 73.425781 89.226562 73.355469 89.230469 73.285156 89.222656 C 66.585938 88.886719 65.925781 88.953125 61.605469 89.390625 C 60.402344 89.511719 58.925781 89.664062 56.972656 89.839844 C 55.019531 90.015625 53.011719 90.296875 51.023438 90.574219 C 49.890625 90.730469 48.765625 90.886719 47.660156 91.027344 C 45.894531 91.242188 43.890625 91.492188 42.519531 92.53125 C 41.890625 93.011719 41.410156 93.8125 41.308594 94.582031 C 41.242188 95.0625 41.328125 95.464844 41.5625 95.773438 C 42.457031 96.949219 44.730469 96.742188 45.410156 96.65625 C 56.902344 95.105469 62.191406 94.574219 70.941406 94.574219 Z M 70.941406 94.574219 " fill-opacity="1" fill-rule="nonzero"/><path fill="#010101" d="M 110.925781 89.167969 C 108.882812 89.167969 107.019531 88.296875 105.339844 87.515625 C 104.757812 87.246094 104.179688 86.976562 103.597656 86.746094 C 102.585938 86.347656 101.128906 85.804688 99.761719 85.289062 L 97.21875 84.332031 C 92.085938 82.363281 87.652344 80.660156 77.824219 78.574219 C 77.679688 78.542969 77.539062 78.496094 77.414062 78.425781 C 73.960938 77.519531 71.050781 77.617188 67.972656 77.722656 L 66.167969 77.777344 C 64.09375 77.824219 58.019531 78.34375 56.082031 78.730469 C 53.628906 79.21875 52.046875 79.554688 50.476562 79.886719 C 48.851562 80.226562 47.242188 80.570312 44.699219 81.074219 C 43.5 81.320312 42.132812 81.59375 40.691406 81.410156 C 38.214844 81.09375 36.003906 79.398438 35.054688 77.089844 C 34.609375 76.011719 34.53125 75 34.816406 74.085938 C 35.117188 72.710938 35.597656 70.496094 38.613281 69.371094 C 47.582031 66.027344 52.886719 65.691406 59.601562 65.265625 C 60.710938 65.199219 61.867188 65.121094 63.097656 65.03125 C 72.5 64.347656 78.628906 65.675781 85.121094 67.09375 C 86.550781 67.40625 88.015625 67.722656 89.558594 68.03125 C 94.445312 69.003906 99.398438 70.890625 104.1875 72.710938 L 106.625 73.640625 C 110.949219 75.261719 115.15625 76.839844 116.160156 81.335938 C 116.527344 82.972656 116.101562 85.730469 114.90625 87.070312 C 114.152344 87.945312 113.371094 88.847656 112.082031 89.0625 C 111.6875 89.136719 111.304688 89.167969 110.925781 89.167969 Z M 78.925781 75.535156 C 88.691406 77.625 93.183594 79.347656 98.363281 81.34375 L 100.882812 82.289062 C 102.269531 82.808594 103.746094 83.359375 104.773438 83.769531 C 105.410156 84.019531 106.050781 84.316406 106.691406 84.613281 C 108.40625 85.414062 110.03125 86.160156 111.554688 85.910156 C 111.710938 85.882812 112.0625 85.472656 112.292969 85.203125 L 112.519531 84.945312 C 112.878906 84.535156 113.226562 82.882812 113.035156 82.046875 C 112.4375 79.375 109.878906 78.289062 105.75 76.738281 L 103.046875 75.71875 C 98.382812 73.941406 93.558594 72.101562 88.929688 71.179688 C 87.371094 70.871094 85.890625 70.550781 84.441406 70.230469 C 77.910156 68.816406 72.273438 67.585938 63.328125 68.242188 C 62.089844 68.332031 60.921875 68.40625 59.800781 68.476562 C 53.09375 68.902344 48.25 69.210938 39.722656 72.390625 C 38.351562 72.898438 38.195312 73.625 38.011719 74.464844 C 37.964844 74.695312 37.917969 74.894531 37.867188 75.0625 C 37.847656 75.125 37.800781 75.367188 38.007812 75.875 C 38.519531 77.121094 39.757812 78.070312 41.089844 78.234375 C 42.007812 78.339844 43.058594 78.144531 44.070312 77.9375 C 46.601562 77.433594 48.199219 77.09375 49.816406 76.753906 C 51.394531 76.421875 52.984375 76.085938 55.457031 75.589844 C 57.589844 75.164062 63.910156 74.625 66.09375 74.578125 L 67.863281 74.523438 C 71.175781 74.410156 74.605469 74.300781 78.734375 75.46875 C 78.796875 75.484375 78.863281 75.511719 78.925781 75.535156 Z M 78.925781 75.535156 " fill-opacity="1" fill-rule="nonzero"/><path fill="#010101" d="M 118.292969 69.578125 C 115.546875 69.578125 112.847656 68.53125 110.4375 67.488281 C 109.285156 66.984375 108.128906 66.46875 106.972656 65.953125 C 101.121094 63.332031 95.0625 60.625 88.765625 59.765625 C 87.4375 59.582031 86.230469 59.363281 84.929688 59.128906 C 83.226562 58.808594 81.355469 58.46875 78.808594 58.152344 C 78.734375 58.152344 78.65625 58.148438 78.582031 58.132812 C 67.960938 56.5 56.011719 57.304688 43.058594 60.507812 L 42.730469 60.585938 C 41.300781 60.9375 39.832031 61.324219 38.230469 61.265625 C 36.050781 61.207031 34.164062 60.328125 33.054688 58.84375 C 32.175781 57.667969 31.433594 56.558594 31.234375 54.902344 C 31.085938 53.679688 31.425781 51.863281 32.019531 50.679688 C 32.535156 49.644531 33.417969 48.96875 34.214844 48.445312 C 37.851562 46.042969 42.066406 44.65625 46.410156 44.433594 C 47.558594 44.371094 48.808594 44.097656 50.136719 43.800781 C 51.332031 43.539062 52.570312 43.265625 53.78125 43.152344 L 55.21875 43.015625 C 59.066406 42.636719 62.96875 42.28125 64.738281 42.34375 C 69.164062 42.53125 71.835938 42.496094 73.984375 42.480469 C 77.699219 42.445312 80.140625 42.421875 87.566406 43.351562 C 88.886719 43.515625 90.835938 43.96875 92.5625 44.371094 C 93.527344 44.59375 94.4375 44.804688 95.128906 44.945312 C 98.570312 45.613281 99.8125 45.855469 103.144531 47.050781 C 104.558594 47.550781 105.6875 47.882812 106.65625 48.164062 C 107.855469 48.515625 108.898438 48.820312 109.933594 49.304688 C 110.648438 49.636719 111.480469 49.984375 112.34375 50.339844 C 113.839844 50.964844 115.386719 51.613281 116.621094 52.289062 C 117.6875 52.875 118.535156 53.300781 119.234375 53.664062 C 121.484375 54.804688 122.507812 55.328125 124.699219 57.667969 C 127.726562 60.914062 125.964844 65.796875 124.175781 67.503906 C 123.269531 68.371094 122.421875 68.761719 121.265625 69.128906 C 120.265625 69.445312 119.277344 69.578125 118.292969 69.578125 Z M 78.945312 54.949219 C 78.992188 54.949219 79.042969 54.953125 79.09375 54.960938 C 81.765625 55.289062 83.722656 55.648438 85.503906 55.96875 C 86.753906 56.199219 87.917969 56.414062 89.191406 56.589844 C 95.945312 57.503906 102.210938 60.308594 108.273438 63.023438 C 109.417969 63.53125 110.5625 64.046875 111.710938 64.546875 C 114.445312 65.742188 117.59375 66.929688 120.277344 66.078125 C 121.070312 65.824219 121.476562 65.644531 121.953125 65.1875 C 122.6875 64.492188 123.949219 61.578125 122.347656 59.863281 C 120.546875 57.933594 119.898438 57.609375 117.769531 56.523438 C 117.042969 56.15625 116.175781 55.710938 115.070312 55.109375 C 113.980469 54.511719 112.511719 53.898438 111.09375 53.304688 C 110.191406 52.929688 109.316406 52.566406 108.570312 52.214844 C 107.75 51.835938 106.867188 51.574219 105.742188 51.25 C 104.726562 50.949219 103.542969 50.605469 102.054688 50.070312 C 98.945312 48.960938 97.855469 48.75 94.625 48.117188 C 93.773438 47.949219 92.832031 47.730469 91.824219 47.5 C 90.179688 47.117188 88.3125 46.679688 87.15625 46.535156 C 79.945312 45.636719 77.574219 45.65625 74.003906 45.691406 C 71.816406 45.710938 69.105469 45.738281 64.59375 45.550781 C 62.910156 45.460938 58.101562 45.949219 55.523438 46.207031 L 54.066406 46.347656 C 53.058594 46.441406 51.972656 46.679688 50.820312 46.9375 C 49.421875 47.25 47.984375 47.566406 46.566406 47.640625 C 42.792969 47.835938 39.128906 49.039062 35.96875 51.125 C 35.523438 51.421875 35.046875 51.769531 34.867188 52.125 C 34.554688 52.75 34.332031 53.921875 34.402344 54.53125 C 34.496094 55.335938 34.851562 55.925781 35.605469 56.9375 C 36.113281 57.617188 37.125 58.042969 38.304688 58.074219 C 39.480469 58.152344 40.675781 57.808594 41.949219 57.488281 L 42.28125 57.40625 C 55.609375 54.101562 67.941406 53.277344 78.945312 54.949219 Z M 78.945312 54.949219 " fill-opacity="1" fill-rule="nonzero"/></svg>