<svg xmlns="http://www.w3.org/2000/svg" xmlns:xlink="http://www.w3.org/1999/xlink" width="200" zoomAndPan="magnify" viewBox="0 0 150 149.999998" height="200" preserveAspectRatio="xMidYMid meet" version="1.0"><defs><clipPath id="fcae70f9e0"><path d="M 6.375 6.375 L 143.625 6.375 L 143.625 143.625 L 6.375 143.625 Z M 6.375 6.375 " clip-rule="nonzero"/></clipPath><clipPath id="e5951e9b70"><path d="M 6.375 6.375 L 143.625 6.375 L 143.625 143.625 L 6.375 143.625 Z M 6.375 6.375 " clip-rule="nonzero"/></clipPath></defs><g clip-path="url(#fcae70f9e0)"><path fill="#ffc44d" d="M 10.84375 6.054688 C 8.199219 6.054688 6.054688 8.199219 6.054688 10.84375 L 6.054688 138.519531 C 6.054688 141.164062 8.199219 143.304688 10.84375 143.304688 L 138.519531 143.304688 C 141.164062 143.304688 143.304688 141.164062 143.304688 138.519531 L 143.304688 10.84375 C 143.304688 8.199219 141.164062 6.054688 138.519531 6.054688 Z M 10.84375 6.054688 " fill-opacity="1" fill-rule="nonzero"/></g><path fill="#eceff1" d="M 103.40625 79.46875 C 100.761719 79.46875 98.621094 81.613281 98.621094 84.257812 L 98.621094 87.449219 C 98.621094 90.09375 100.761719 92.234375 103.40625 92.234375 L 112.984375 92.234375 C 120.914062 92.234375 127.347656 98.667969 127.347656 106.597656 L 127.347656 109.792969 C 127.347656 117.722656 120.914062 124.15625 112.984375 124.15625 L 93.832031 124.15625 C 91.1875 124.15625 89.042969 122.011719 89.042969 119.367188 C 89.042969 116.722656 91.1875 114.578125 93.832031 114.578125 L 112.984375 114.578125 C 115.628906 114.578125 117.769531 112.433594 117.769531 109.792969 L 117.769531 106.597656 C 117.769531 103.957031 115.628906 101.8125 112.984375 101.8125 L 103.40625 101.8125 C 95.476562 101.8125 89.042969 95.378906 89.042969 87.449219 L 89.042969 84.257812 C 89.042969 76.324219 95.476562 69.894531 103.40625 69.894531 L 122.558594 69.894531 C 125.203125 69.894531 127.347656 72.035156 127.347656 74.679688 C 127.347656 77.324219 125.203125 79.46875 122.558594 79.46875 Z M 103.40625 79.46875 " fill-opacity="1" fill-rule="evenodd"/><path fill="#eceff1" d="M 77.871094 69.894531 C 80.515625 69.894531 82.660156 72.035156 82.660156 74.679688 L 82.660156 109.792969 C 82.660156 117.722656 76.230469 124.15625 68.296875 124.15625 L 58.722656 124.15625 C 50.789062 124.15625 44.359375 117.722656 44.359375 109.792969 L 44.359375 106.597656 C 44.359375 103.957031 46.5 101.8125 49.144531 101.8125 C 51.789062 101.8125 53.933594 103.957031 53.933594 106.597656 L 53.933594 109.792969 C 53.933594 112.433594 56.078125 114.578125 58.722656 114.578125 L 68.296875 114.578125 C 70.941406 114.578125 73.085938 112.433594 73.085938 109.792969 L 73.085938 74.679688 C 73.085938 72.035156 75.230469 69.894531 77.871094 69.894531 Z M 77.871094 69.894531 " fill-opacity="1" fill-rule="evenodd"/><g clip-path="url(#e5951e9b70)"><path fill="#000000" d="M 6.054688 10.84375 C 6.054688 8.199219 8.199219 6.054688 10.84375 6.054688 L 29.996094 6.054688 C 32.640625 6.054688 34.78125 8.199219 34.78125 10.84375 C 34.78125 13.488281 32.640625 15.632812 29.996094 15.632812 L 15.632812 15.632812 L 15.632812 133.730469 L 133.730469 133.730469 L 133.730469 15.632812 L 55.53125 15.632812 C 52.886719 15.632812 50.742188 13.488281 50.742188 10.84375 C 50.742188 8.199219 52.886719 6.054688 55.53125 6.054688 L 138.519531 6.054688 C 141.164062 6.054688 143.304688 8.199219 143.304688 10.84375 L 143.304688 138.519531 C 143.304688 141.164062 141.164062 143.304688 138.519531 143.304688 L 10.84375 143.304688 C 8.199219 143.304688 6.054688 141.164062 6.054688 138.519531 Z M 6.054688 10.84375 " fill-opacity="1" fill-rule="evenodd"/></g><path fill="#000000" d="M 103.40625 79.46875 C 100.761719 79.46875 98.621094 81.613281 98.621094 84.257812 L 98.621094 87.449219 C 98.621094 90.09375 100.761719 92.234375 103.40625 92.234375 L 112.984375 92.234375 C 120.914062 92.234375 127.347656 98.667969 127.347656 106.597656 L 127.347656 109.792969 C 127.347656 117.722656 120.914062 124.15625 112.984375 124.15625 L 93.832031 124.15625 C 91.1875 124.15625 89.042969 122.011719 89.042969 119.367188 C 89.042969 116.722656 91.1875 114.578125 93.832031 114.578125 L 112.984375 114.578125 C 115.628906 114.578125 117.769531 112.433594 117.769531 109.792969 L 117.769531 106.597656 C 117.769531 103.957031 115.628906 101.8125 112.984375 101.8125 L 103.40625 101.8125 C 95.476562 101.8125 89.042969 95.378906 89.042969 87.449219 L 89.042969 84.257812 C 89.042969 76.324219 95.476562 69.894531 103.40625 69.894531 L 122.558594 69.894531 C 125.203125 69.894531 127.347656 72.035156 127.347656 74.679688 C 127.347656 77.324219 125.203125 79.46875 122.558594 79.46875 Z M 103.40625 79.46875 " fill-opacity="1" fill-rule="evenodd"/><path fill="#000000" d="M 77.871094 69.894531 C 80.515625 69.894531 82.660156 72.035156 82.660156 74.679688 L 82.660156 109.792969 C 82.660156 117.722656 76.230469 124.15625 68.296875 124.15625 L 58.722656 124.15625 C 50.789062 124.15625 44.359375 117.722656 44.359375 109.792969 L 44.359375 106.597656 C 44.359375 103.957031 46.5 101.8125 49.144531 101.8125 C 51.789062 101.8125 53.933594 103.957031 53.933594 106.597656 L 53.933594 109.792969 C 53.933594 112.433594 56.078125 114.578125 58.722656 114.578125 L 68.296875 114.578125 C 70.941406 114.578125 73.085938 112.433594 73.085938 109.792969 L 73.085938 74.679688 C 73.085938 72.035156 75.230469 69.894531 77.871094 69.894531 Z M 77.871094 69.894531 " fill-opacity="1" fill-rule="evenodd"/></svg>